<?xml version="1.0" encoding="UTF-8"?><svg id="Layer_1" xmlns="http://www.w3.org/2000/svg" viewBox="0 0 346.11 123.02"><defs><style>.cls-1{fill:#fff;}</style></defs><path class="cls-1" d="M174.12,61.42c0,42.55-29.2,61.6-87.06,61.6S0,103.98,0,61.42,29.02,0,87.06,0s87.06,18.87,87.06,61.42Zm-36.68,0c0-25.64-13.35-30.44-50.39-30.44s-50.39,4.81-50.39,30.44,13.35,30.62,50.39,30.62,50.39-4.99,50.39-30.62Z"/><path class="cls-1" d="M266.35,46.65h76.2V121.07h-81.72c-41.3,0-71.75-26.17-71.75-60.71S219.53,1.96,260.83,1.96h85.28l-23.86,30.98h-61.42c-19.94,0-35.07,12.11-35.07,29.02s14.6,28.49,35.07,28.49h45.04v-17.27h-61.6l22.08-26.53Z"/></svg>